<svg id="undraw_empty_street_sfxm" xmlns="http://www.w3.org/2000/svg" width="704" height="326" viewBox="0 0 704 326">
  <rect id="Rectangle" width="22" height="75" transform="translate(612 131)" fill="#f2f2f2"/>
  <path id="Path" d="M224,63.24,170.981,0,64.559.975,0,64.022l1.3.841H.838V196H223.858V64.863L224,63.24Z" transform="translate(425 129)" fill="#f2f2f2"/>
  <path id="Path-2" data-name="Path" d="M66.2,0,0,77.911V196H119V63.09L66.2,0Z" transform="translate(529 129)" fill="#e6e6e6"/>
  <rect id="Rectangle-2" data-name="Rectangle" width="24" height="22" transform="translate(578 260)" fill="#3f3d56"/>
  <rect id="Rectangle-3" data-name="Rectangle" width="24" height="20" transform="translate(578 223)" fill="#3f3d56"/>
  <rect id="Rectangle-4" data-name="Rectangle" width="24" height="22" transform="translate(578 260)" fill="#fff"/>
  <rect id="Rectangle-5" data-name="Rectangle" width="24" height="20" transform="translate(578 223)" fill="#fff"/>
  <rect id="Rectangle-6" data-name="Rectangle" width="24" height="22" transform="translate(469 255)" fill="#fff"/>
  <rect id="Rectangle-7" data-name="Rectangle" width="24" height="20" transform="translate(469 218)" fill="#fff"/>
  <rect id="Rectangle-8" data-name="Rectangle" width="22" height="75" transform="translate(440 131)" fill="#f2f2f2"/>
  <path id="Path-3" data-name="Path" d="M224,63.24,170.981,0,64.559.975,0,64.022l1.3.841H.838V196H223.858V64.863L224,63.24Z" transform="translate(252 129)" fill="#f2f2f2"/>
  <path id="Path-4" data-name="Path" d="M66.2,0,0,77.911V196H119V63.09L66.2,0Z" transform="translate(357 129)" fill="#e6e6e6"/>
  <rect id="Rectangle-9" data-name="Rectangle" width="24" height="22" transform="translate(406 260)" fill="#3f3d56"/>
  <rect id="Rectangle-10" data-name="Rectangle" width="24" height="20" transform="translate(406 223)" fill="#3f3d56"/>
  <rect id="Rectangle-11" data-name="Rectangle" width="24" height="22" transform="translate(406 260)" fill="#fff"/>
  <rect id="Rectangle-12" data-name="Rectangle" width="24" height="20" transform="translate(406 223)" fill="#fff"/>
  <rect id="Rectangle-13" data-name="Rectangle" width="24" height="22" transform="translate(297 255)" fill="#fff"/>
  <rect id="Rectangle-14" data-name="Rectangle" width="24" height="20" transform="translate(297 218)" fill="#fff"/>
  <rect id="Rectangle-15" data-name="Rectangle" width="29" height="101" transform="translate(257 66)" fill="#f2f2f2"/>
  <path id="Path-5" data-name="Path" d="M299,84.212,228.23,0,86.174,1.3,0,85.254l1.741,1.119H1.119V261h297.69V86.373L299,84.212Z" transform="translate(7 63)" fill="#f2f2f2"/>
  <path id="Path-6" data-name="Path" d="M89.014,0,0,103.749V261H160V84.013L89.014,0Z" transform="translate(146 63)" fill="#e6e6e6"/>
  <rect id="Rectangle-16" data-name="Rectangle" width="32" height="29" transform="translate(211 238)" fill="#3f3d56"/>
  <rect id="Rectangle-17" data-name="Rectangle" width="32" height="27" transform="translate(211 189)" fill="#3f3d56"/>
  <rect id="Rectangle-18" data-name="Rectangle" width="32" height="29" transform="translate(211 238)" fill="#fff"/>
  <rect id="Rectangle-19" data-name="Rectangle" width="32" height="27" transform="translate(211 189)" fill="#fff"/>
  <rect id="Rectangle-20" data-name="Rectangle" width="32" height="29" transform="translate(65 229)" fill="#fff"/>
  <rect id="Rectangle-21" data-name="Rectangle" width="32" height="27" transform="translate(65 182)" fill="#fff"/>
  <ellipse id="Oval" cx="21" cy="43.5" rx="21" ry="43.5" transform="translate(71 212)" fill="#3f3d56"/>
  <path id="Path-7" data-name="Path" d="M4.179,101C-5.177,50.659,4.085.5,4.18,0L6,.276c-.094.5-9.3,50.393,0,100.452Z" transform="translate(89 224)" fill="#eb5e55"/>
  <path id="Rectangle-22" data-name="Rectangle" d="M0,0,21.587.009V1.672L0,1.663Z" transform="translate(91.266 255.725) rotate(-28.142)" fill="#eb5e55"/>
  <path id="Rectangle-23" data-name="Rectangle" d="M0,0H1.663l.009,21.588H.009Z" transform="matrix(0.472, -0.882, 0.882, 0.472, 71.171, 252.113)" fill="#eb5e55"/>
  <ellipse id="Oval-2" data-name="Oval" cx="41.5" cy="83.5" rx="41.5" ry="83.5" transform="translate(0 105)" fill="#eb5e55"/>
  <path id="Path-8" data-name="Path" d="M8.176,199c-18.3-99.187-.185-198.013,0-199L10,.279c-.185.984-18.251,99.544,0,198.447Z" transform="translate(37 127)" fill="#3f3d56"/>
  <path id="Rectangle-24" data-name="Rectangle" d="M0,0,42.223.018V1.68L0,1.663Z" transform="translate(40.571 191.14) rotate(-28.142)" fill="#3f3d56"/>
  <path id="Rectangle-25" data-name="Rectangle" d="M0,0H1.663L1.68,42.224H.018Z" transform="translate(1.269 182.675) rotate(-61.843)" fill="#3f3d56"/>
  <ellipse id="Oval-3" data-name="Oval" cx="56" cy="115" rx="56" ry="115" transform="translate(83 23)" fill="#eb5e55"/>
  <path id="Path-9" data-name="Path" d="M10.318,270c-23.1-134.576-.233-268.661,0-270L12,.277c-.233,1.336-23.049,135.158,0,269.452Z" transform="translate(135 56)" fill="#3f3d56"/>
  <path id="Rectangle-26" data-name="Rectangle" d="M0,0,57.779.024V1.687L0,1.663Z" transform="translate(138.028 141.826) rotate(-28.142)" fill="#3f3d56"/>
  <path id="Rectangle-27" data-name="Rectangle" d="M0,0H1.663L1.687,57.78H.024Z" transform="translate(84.245 129.702) rotate(-61.843)" fill="#3f3d56"/>
  <ellipse id="Oval-4" data-name="Oval" cx="21" cy="43.5" rx="21" ry="43.5" transform="translate(591 212)" fill="#3f3d56"/>
  <path id="Path-10" data-name="Path" d="M1.821,101C11.177,50.659,1.915.5,1.82,0L0,.276c.094.5,9.3,50.393,0,100.452Z" transform="translate(609 224)" fill="#eb5e55"/>
  <path id="Rectangle-28" data-name="Rectangle" d="M0,0H1.663l.009,21.587H.009Z" transform="translate(592.806 247.017) rotate(-61.858)" fill="#eb5e55"/>
  <path id="Rectangle-29" data-name="Rectangle" d="M0,0,21.588.009V1.672L0,1.663Z" transform="matrix(0.882, -0.472, 0.472, 0.882, 612.903, 260.827)" fill="#eb5e55"/>
  <ellipse id="Oval-5" data-name="Oval" cx="41.5" cy="83.5" rx="41.5" ry="83.5" transform="translate(621 105)" fill="#eb5e55"/>
  <path id="Path-11" data-name="Path" d="M1.824,199c18.3-99.187.185-198.013,0-199L0,.279c.185.984,18.251,99.544,0,198.447Z" transform="translate(657 127)" fill="#3f3d56"/>
  <path id="Rectangle-30" data-name="Rectangle" d="M0,0H1.663L1.68,42.224H.018Z" transform="translate(625.301 172.707) rotate(-61.858)" fill="#3f3d56"/>
  <path id="Rectangle-31" data-name="Rectangle" d="M0,0,42.223.018V1.68L0,1.663Z" transform="translate(664.608 201.119) rotate(-28.157)" fill="#3f3d56"/>
  <ellipse id="Oval-6" data-name="Oval" cx="56" cy="115" rx="56" ry="115" transform="translate(509 23)" fill="#eb5e55"/>
  <path id="Path-12" data-name="Path" d="M1.682,270c23.1-134.576.233-268.661,0-270L0,.277C.234,1.613,23.049,135.434,0,269.728Z" transform="translate(557 56)" fill="#3f3d56"/>
  <path id="Rectangle-32" data-name="Rectangle" d="M0,0H1.663L1.687,57.78H.024Z" transform="translate(514.124 116.061) rotate(-61.858)" fill="#3f3d56"/>
  <path id="Rectangle-33" data-name="Rectangle" d="M0,0,57.779.024V1.687L0,1.663Z" transform="translate(567.913 155.48) rotate(-28.157)" fill="#3f3d56"/>
  <path id="Path-13" data-name="Path" d="M10.184,5.446,17,.075C11.705-.5,9.53,2.345,8.639,4.6,4.5,2.9,0,5.122,0,5.122L13.637,10a10.182,10.182,0,0,0-3.452-4.554Z" transform="translate(398 68)" fill="#3f3d56"/>
  <path id="Path-14" data-name="Path" d="M10.184,5.446,17,.075C11.705-.5,9.53,2.345,8.639,4.6,4.5,2.9,0,5.122,0,5.122L13.637,10a10.182,10.182,0,0,0-3.452-4.554Z" transform="translate(236 20)" fill="#3f3d56"/>
  <path id="Path-15" data-name="Path" d="M10.184,5.446,17,.075C11.705-.5,9.53,2.345,8.639,4.6,4.5,2.9,0,5.122,0,5.122L13.637,10A10.182,10.182,0,0,0,10.184,5.446Z" transform="translate(500)" fill="#3f3d56"/>
  <path id="Path-16" data-name="Path" d="M23.678,1.467a10.37,10.37,0,0,0-5.157,1.371A11.163,11.163,0,0,0,6.581.948,10.982,10.982,0,0,0,0,11H34A10.314,10.314,0,0,0,23.678,1.467Z" transform="translate(500 314)" fill="#3f3d56"/>
  <path id="Path-17" data-name="Path" d="M23.678,1.467a10.37,10.37,0,0,0-5.157,1.371A11.163,11.163,0,0,0,6.581.948,10.982,10.982,0,0,0,0,11H34A10.314,10.314,0,0,0,23.678,1.467Z" transform="translate(162 314)" fill="#3f3d56"/>
  <path id="Path-18" data-name="Path" d="M23.678,1.467a10.37,10.37,0,0,0-5.157,1.371A11.163,11.163,0,0,0,6.581.948,10.982,10.982,0,0,0,0,11H34A10.314,10.314,0,0,0,23.678,1.467Z" transform="translate(335 314)" fill="#3f3d56"/>
  <path id="Path-19" data-name="Path" d="M97,0H0V3.047H15.128V32h3.129V3.047H77.178V32h3.129V3.047H97V0Z" transform="translate(227 292)" fill="#3f3d56"/>
  <rect id="Rectangle-34" data-name="Rectangle" width="97" height="2" transform="translate(227 284)" fill="#3f3d56"/>
  <rect id="Rectangle-35" data-name="Rectangle" width="97" height="2" transform="translate(227 275)" fill="#3f3d56"/>
  <rect id="Rectangle-36" data-name="Rectangle" width="97" height="2" transform="translate(227 268)" fill="#3f3d56"/>
  <path id="Path-20" data-name="Path" d="M97,0H0V3.047H15.128V32h3.129V3.047H77.178V32h3.129V3.047H97V0Z" transform="translate(376 292)" fill="#3f3d56"/>
  <rect id="Rectangle-37" data-name="Rectangle" width="97" height="2" transform="translate(376 284)" fill="#3f3d56"/>
  <rect id="Rectangle-38" data-name="Rectangle" width="97" height="2" transform="translate(376 275)" fill="#3f3d56"/>
  <rect id="Rectangle-39" data-name="Rectangle" width="97" height="2" transform="translate(376 268)" fill="#3f3d56"/>
</svg>
